<?xml version="1.0" encoding="utf-8"?>
<!-- Generator: Adobe Illustrator 16.0.0, SVG Export Plug-In . SVG Version: 6.00 Build 0)  -->
<!DOCTYPE svg PUBLIC "-//W3C//DTD SVG 1.1//EN" "http://www.w3.org/Graphics/SVG/1.1/DTD/svg11.dtd">
<svg version="1.1" id="Capa_1" xmlns="http://www.w3.org/2000/svg" xmlns:xlink="http://www.w3.org/1999/xlink" x="0px" y="0px" width="85.32px" height="85.33px" viewBox="0 0 85.32 85.33" enable-background="new 0 0 85.32 85.33" xml:space="preserve">
<g>
	<path fill="#4E4E4E" d="M42.66-0.002c-23.564,0-42.667,19.103-42.667,42.667S19.095,85.332,42.66,85.332
		c23.564,0,42.667-19.103,42.667-42.667S66.224-0.002,42.66-0.002z M53.657,27.36c-2.055,0-4.271,0-5.32,0
		c-1.053,0-2.117,1.092-2.117,1.901s0,5.427,0,5.427s6.572,0,7.426,0c-0.297,4.159-0.91,7.965-0.91,7.965h-6.553v23.576h-9.767
		V42.653h-4.753v-7.936h4.753c0,0,0-5.302,0-6.488s-0.24-9.129,10.005-9.129c1.377,0,4.494,0,7.236,0
		C53.657,22.548,53.657,26.279,53.657,27.36z"/>
</g>
</svg>
