<?xml version="1.0" encoding="utf-8"?>
<!-- Generator: Adobe Illustrator 16.0.0, SVG Export Plug-In . SVG Version: 6.00 Build 0)  -->
<!DOCTYPE svg PUBLIC "-//W3C//DTD SVG 1.1//EN" "http://www.w3.org/Graphics/SVG/1.1/DTD/svg11.dtd">
<svg version="1.1" id="Capa_1" xmlns="http://www.w3.org/2000/svg" xmlns:xlink="http://www.w3.org/1999/xlink" x="0px" y="0px"
	 width="54px" height="54px" viewBox="0 0 54 54" enable-background="new 0 0 54 54" xml:space="preserve">
<g transform="translate(0,52)">
	<path fill="#46433e" d="M3.08-42.333h47.84c1.148,0,2.08,0.932,2.08,2.081v2.773c0,1.149-0.932,2.081-2.08,2.081H3.08
		C1.931-35.399,1-36.331,1-37.48v-2.773C1-41.402,1.931-42.333,3.08-42.333z"/>
	<path fill="#46433e" d="M3.08-28.466h47.84c1.148,0,2.08,0.931,2.08,2.08v2.772c0,1.149-0.932,2.08-2.08,2.08H3.08
		c-1.149,0-2.08-0.931-2.08-2.08v-2.772C1-27.535,1.931-28.466,3.08-28.466z"/>
	<path fill="#46433e" d="M3.08-14.6h47.84c1.148,0,2.08,0.931,2.08,2.08v2.774c0,1.147-0.932,2.079-2.08,2.079H3.08
		C1.931-7.666,1-8.598,1-9.745v-2.774C1-13.669,1.931-14.6,3.08-14.6z"/>
</g>
</svg>
