<?xml version="1.0" encoding="utf-8"?>
<!-- Generator: Adobe Illustrator 16.0.0, SVG Export Plug-In . SVG Version: 6.00 Build 0)  -->
<!DOCTYPE svg PUBLIC "-//W3C//DTD SVG 1.1//EN" "http://www.w3.org/Graphics/SVG/1.1/DTD/svg11.dtd">
<svg version="1.1" id="Capa_1" xmlns="http://www.w3.org/2000/svg" xmlns:xlink="http://www.w3.org/1999/xlink" x="0px" y="0px"
	 width="85.32px" height="85.33px" viewBox="0 0 85.32 85.33" enable-background="new 0 0 85.32 85.33" xml:space="preserve">
<g>
	<path fill="#4E4E4E" d="M42.659-0.003C19.094-0.003-0.008,19.1-0.008,42.664s19.103,42.668,42.667,42.668
		c23.564,0,42.667-19.104,42.667-42.668S66.223-0.003,42.659-0.003z M62.147,43.604c-4.174,16.919-32.195,24.095-45.085,6.533
		C22,54.846,30.597,55.26,36.05,49.629c-3.197,0.467-5.522-2.668-1.596-4.361c-3.531,0.385-5.497-1.495-6.301-3.088
		c0.826-0.868,1.74-1.27,3.507-1.387c-3.866-0.914-5.294-2.805-5.732-5.1c1.073-0.256,2.417-0.475,3.151-0.377
		c-3.391-1.773-4.564-4.436-4.38-6.438c6.054,2.248,9.91,4.052,13.135,5.782c1.15,0.612,2.432,1.716,3.876,3.117
		c1.843-4.867,4.117-9.883,8.013-12.371c-0.062,0.564-0.367,1.09-0.768,1.52c1.107-1.004,2.541-1.695,4.002-1.895
		c-0.168,1.096-1.746,1.713-2.697,2.071c0.721-0.226,4.555-1.937,4.973-0.961c0.494,1.106-2.645,1.618-3.18,1.812
		c-0.396,0.132-0.797,0.279-1.189,0.438c4.859-0.484,9.498,3.523,10.855,8.5c0.096,0.358,0.191,0.754,0.279,1.173
		c1.777,0.661,4.996-0.032,6.035-0.671c-0.752,1.774-2.701,3.082-5.578,3.318c1.387,0.576,3.998,0.893,5.801,0.587
		C67.116,42.519,65.278,43.63,62.147,43.604z"/>
</g>
</svg>
